<?xml version="1.0" encoding="UTF-8"?>
<svg width="49px" height="49px" viewBox="0 0 49 49" version="1.1" xmlns="http://www.w3.org/2000/svg" xmlns:xlink="http://www.w3.org/1999/xlink">
    <title>形状备份 9</title>
    <g id="页面-1" stroke="none" stroke-width="1" fill="none" fill-rule="evenodd">
        <path d="M4.09343344,16.3333333 C1.83142807,16.3333333 0,18.1560746 0,20.4045398 L0,44.9287936 C0,47.173701 1.83269188,49 4.09343344,49 L44.9065666,49 C47.1685719,49 49,47.1772588 49,44.9287936 L49,20.4045398 C49,18.1596323 47.1673081,16.3333333 44.9065666,16.3333333 L32.6712012,16.3333333 C31.5411142,16.3333333 30.625,17.2395573 30.625,18.375 C30.625,19.5025813 31.5190071,20.4166667 32.6726467,20.4166667 L44.9166667,20.4166667 L44.9166667,44.9166667 L4.08333332,44.9166667 L4.08333332,20.4166667 L16.3273533,20.4166667 C17.4582366,20.4166667 18.375,19.5104427 18.375,18.375 C18.375,17.2474188 17.4598984,16.3333333 16.3287988,16.3333333 L4.09343344,16.3333333 L4.09343344,16.3333333 Z M24.5,27.8413419 C23.3724181,27.8413419 22.4583333,26.9355977 22.4583333,25.7993401 L22.4583333,6.22869444 L16.096549,12.5904789 C15.2932022,13.3938255 14.0011641,13.4042694 13.1982848,12.6013902 C12.4009649,11.8040697 12.3899909,10.517441 13.1993771,9.70182238 L21.6138041,1.20690096 C23.2078047,-0.399372868 25.7863868,-0.405225114 27.3861959,1.20690096 L35.8006229,9.70182238 C36.5985471,10.505889 36.6045946,11.7985109 35.8017153,12.6013902 C35.0043954,13.3987106 33.7112262,13.398253 32.903451,12.5904789 L26.5416667,6.22869444 L26.5416667,25.7993401 C26.5416667,26.9271066 25.6354423,27.8413419 24.5,27.8413419 L24.5,27.8413419 Z" id="形状备份-9" fill="#0054AF" fill-rule="nonzero"></path>
    </g>
</svg>