<?xml version="1.0" encoding="UTF-8"?>
<svg width="56px" height="56px" viewBox="0 0 56 56" version="1.1" xmlns="http://www.w3.org/2000/svg" xmlns:xlink="http://www.w3.org/1999/xlink">
    <title>形状备份</title>
    <g id="页面-1" stroke="none" stroke-width="1" fill="none" fill-rule="evenodd">
        <path d="M30.6145227,33.284821 L34.7412422,27.8933857 C35.658291,26.6881332 37.0567903,26.4627233 38.2581242,27.3873637 C39.4548729,28.3074038 39.4961401,29.687464 38.5790913,30.8927166 L30.6145227,41.2155671 C29.5140642,42.6508297 27.0747145,42.6508297 25.9834264,41.2155671 L18.0096874,30.8927166 C17.0926386,29.6920642 17.2164402,28.3074038 18.4177741,27.3873637 C19.619108,26.4627233 20.9304877,26.6881332 21.8475365,27.8933857 L25.9742559,33.284821 L25.9742559,3.46631984 C25.9742559,1.9482536 26.7812589,0.72 28.2898041,0.72 C29.8029346,0.72 30.6099375,1.9528538 30.6099375,3.46631984 L30.6099375,33.284821 L30.6145227,33.284821 Z M51.2802168,28.2476012 C51.2802168,26.729535 52.0092705,25.5012814 53.522401,25.5012814 C55.0355315,25.5012814 55.76,26.4351221 55.76,27.9485882 L55.76,47.7294513 C55.76,51.9754366 53.0088537,55.72 48.7766736,55.72 L7.6195248,55.72 C3.38275948,55.72 0.76,52.2744496 0.76,48.0284644 L0.76,28.2476012 C0.76,26.729535 1.51197999,25.5012814 3.02511046,25.5012814 C4.53824093,25.5012814 5.28563568,26.7341352 5.28563568,28.2476012 L5.28563568,48.0284644 C5.28563568,49.2429174 6.40902043,51.4280127 7.6195248,51.4280127 L48.7766736,51.4280127 C49.987178,51.4280127 51.2802168,49.2429174 51.2802168,48.0238642 L51.2802168,28.2522014 L51.2802168,28.2476012 Z" id="形状备份" fill="#0052A9" fill-rule="nonzero"></path>
    </g>
</svg>