<?xml version="1.0" encoding="UTF-8"?>
<svg width="53px" height="49px" viewBox="0 0 53 49" version="1.1" xmlns="http://www.w3.org/2000/svg" xmlns:xlink="http://www.w3.org/1999/xlink">
    <title>编组</title>
    <g id="页面-1" stroke="none" stroke-width="1" fill="none" fill-rule="evenodd">
        <g id="编组" fill="#EEEEEF" fill-rule="nonzero">
            <path d="M38.4072658,4.08333333 C44.2848948,4.08333333 48.9464627,8.728125 48.9464627,14.7 C48.9464627,22.96875 40.4847036,30.7270833 27.6147228,42.4666667 L26.5,43.4875 L25.3852772,42.4666667 C12.5152964,30.7270833 4.05353728,22.96875 4.05353728,14.7 C4.05353728,8.77916667 8.66443595,4.08333333 14.5927342,4.08333333 C17.9369025,4.08333333 21.2304015,5.61458333 23.459847,8.21770833 L26.5506692,11.8416667 L29.6414914,8.21770833 C31.7695985,5.665625 35.1137667,4.08333333 38.4072658,4.08333333 M38.4072658,0 C33.7963671,0 29.3881453,2.14375 26.5,5.56354167 C23.6118547,2.19479167 19.2036329,0 14.5927342,0 C6.43499044,0 0,6.43125 0,14.7 C0,24.7552083 9.01912046,33.0239583 22.6491396,45.478125 L26.5,49 L30.3508604,45.478125 C43.9808795,32.9729167 53,24.7552083 53,14.7 C53,6.48229167 46.6156788,0 38.4072658,0 Z" id="形状"></path>
        </g>
    </g>
</svg>