<?xml version="1.0" encoding="UTF-8"?>
<svg width="21px" height="34px" viewBox="0 0 21 34" version="1.1" xmlns="http://www.w3.org/2000/svg" xmlns:xlink="http://www.w3.org/1999/xlink">
    <title>编组</title>
    <g id="页面-1" stroke="none" stroke-width="1" fill="none" fill-rule="evenodd">
        <g id="个人中心" transform="translate(-310.000000, -587.000000)" fill="#0052A9" fill-rule="nonzero">
            <g id="编组" transform="translate(310.000000, 587.000000)">
                <path d="M18.4245283,0 L2.5754717,0 C1.15535663,0 0,1.16635998 0,2.6 L0,31.4 C0,32.83364 1.15535659,34 2.5754717,34 L18.4245283,34 C19.8446434,34 21,32.83364 21,31.4 L21,2.6 C21,1.16632003 19.8446434,0 18.4245283,0 Z M1.98117169,6.80000001 L19.0189075,6.80000001 L19.0189075,25.6 L1.98117169,25.6 L1.98117169,6.80000001 Z M2.57551131,2 L18.4245679,2 C18.7522868,2 19.0189075,2.26915999 19.0189075,2.6 L19.0189075,4.80000001 L1.98117169,4.80000001 L1.98117169,2.6 C1.98117169,2.26916003 2.24779247,2 2.57551131,2 Z M18.4245283,32 L2.5754717,32 C2.24775282,32 1.98113208,31.73084 1.98113208,31.4 L1.98113208,27.6 L19.0188679,27.6 L19.0188679,31.4 C19.0188679,31.73088 18.7522868,32 18.4245283,32 Z M16.8396226,28.8 L13.6698113,28.8 C13.1227019,28.8 12.6792453,29.24768 12.6792453,29.8 C12.6792453,30.35232 13.1227019,30.8 13.6698113,30.8 L16.8396226,30.8 C17.3867321,30.8 17.8301887,30.35232 17.8301887,29.8 C17.8301887,29.24768 17.3867321,28.8 16.8396226,28.8 Z M7.3302283,28.8 L4.16041698,28.8 C3.61334715,28.8 3.16985094,29.24768 3.16985094,29.8 C3.16985094,30.35232 3.61334715,30.8 4.16041698,30.8 L7.3302283,30.8 C7.87729813,30.8 8.32079434,30.35232 8.32079434,29.8 C8.32079434,29.24768 7.87729813,28.8 7.3302283,28.8 Z" id="形状"></path>
            </g>
        </g>
    </g>
</svg>