<?xml version="1.0" encoding="UTF-8"?>
<svg width="64px" height="65px" viewBox="0 0 64 65" version="1.1" xmlns="http://www.w3.org/2000/svg" xmlns:xlink="http://www.w3.org/1999/xlink">
    <title>编组备份 3</title>
    <g id="页面-1" stroke="none" stroke-width="1" fill="none" fill-rule="evenodd">
        <g id="编组备份-3" fill="#0052A9" fill-rule="nonzero">
            <path d="M34.5356953,5.1989873 C48.0157175,6.50589359 58.2978879,17.804307 58.2972314,31.3090056 L58.2700753,31.3090056 C58.2870478,31.427472 58.2972313,31.5459386 58.2972314,31.6711746 L58.2972314,49.0789817 L61.4541211,49.0789817 C62.8601712,49.0789817 64,50.2155373 64,51.6175497 C64,53.0195621 62.8601712,54.1561177 61.4541211,54.1561177 L44.5834305,54.1561177 C43.6636676,60.3848751 38.303862,65 31.9898165,65 C25.675771,65 20.3159653,60.3848751 19.3962024,54.1561177 L2.54587886,54.1561177 C1.13982879,54.1561177 0,53.0195621 0,51.6175497 C0,50.2155373 1.13982879,49.0789817 2.54587886,49.0789817 L5.68240161,49.0789817 L5.68240161,31.6711746 C5.68240161,31.5459385 5.69258512,31.427472 5.7095577,31.3090056 L5.68240161,31.3090056 C5.68174507,17.804307 15.9639155,6.50589359 29.4439376,5.1989873 L29.4439376,2.53856802 C29.4439376,1.13655561 30.5837664,0 31.9898165,0 C33.3958666,0 34.5356953,1.13655561 34.5356953,2.53856802 L34.5356953,5.1989873 Z M10.7741593,49.0789817 L53.2054736,49.0789817 L53.2054736,31.6711746 C53.2054736,31.5459385 53.2156572,31.427472 53.2326297,31.3090056 L53.2054736,31.3090056 C53.2054736,19.6255689 43.7069004,10.1542721 31.9898165,10.1542721 C20.2727326,10.1542721 10.7741593,19.6255689 10.7741593,31.3090056 L10.7470033,31.3090056 C10.7639758,31.427472 10.7741593,31.5459386 10.7741593,31.6711746 L10.7741593,49.0789817 Z M39.3966267,54.1561177 L24.5830062,54.1561177 C25.4370673,57.5409757 28.4894207,59.9136671 31.9898165,59.9136671 C35.4902123,59.9136671 38.5425656,57.5409757 39.3966267,54.1561177 Z" id="形状"></path>
        </g>
    </g>
</svg>