<?xml version="1.0" encoding="UTF-8"?>
<svg width="62px" height="59px" viewBox="0 0 62 59" version="1.1" xmlns="http://www.w3.org/2000/svg" xmlns:xlink="http://www.w3.org/1999/xlink">
    <title>编组备份 2</title>
    <g id="页面-1" stroke="none" stroke-width="1" fill="none" fill-rule="evenodd">
        <g id="编组备份-2" fill="#0052A9" fill-rule="nonzero">
            <path d="M61.3514553,23.4031131 C60.9830989,21.4423949 59.788858,20.1744959 58.2594104,20.1744959 L57.9942124,20.1744959 C53.8613118,20.1744959 50.4997417,16.7892299 50.4997417,12.6259332 C50.4997417,11.3107206 51.1264187,9.81107777 51.1506049,9.75146874 C51.9131265,8.02350609 51.3280218,5.90598336 49.7854379,4.81916841 L42.030251,0.470585561 L41.9162746,0.414400516 C40.3648045,-0.263166284 38.2412887,0.170516903 37.0844474,1.38425408 C36.247281,2.25379941 33.3611664,4.73317878 31.1589103,4.73317878 C28.9279862,4.73317878 26.035458,2.20407336 25.1940417,1.3180304 C24.0392095,0.0954218866 21.937639,-0.363552393 20.3686281,0.312847174 L12.3373478,4.74422899 L12.2168033,4.82150288 C10.6740649,5.90396 10.0867967,8.02140493 10.8450681,9.742753 C10.8712634,9.8057083 11.5002586,11.2931335 11.5002586,12.626011 C11.5002586,16.7893077 8.13868853,20.1745737 4.00586524,20.1745737 L3.69252667,20.1745737 C2.21114241,20.1745737 1.01682412,21.4423949 0.648699683,23.4031909 C0.621268049,23.5411633 0,26.859194 0,29.5195795 C0,32.176541 0.621268049,35.4934045 0.648699683,35.6302874 C1.0168242,37.5922507 2.21114241,38.861239 3.74066723,38.861239 L4.00586524,38.861239 C8.1386886,38.861239 11.5002586,42.2465829 11.5002586,46.4086344 C11.5002586,47.7327184 10.8713407,49.2267583 10.8472317,49.2841106 C10.0868738,51.0154194 10.6698149,53.129596 12.2080714,54.2109636 L19.8164413,58.509976 L19.9325813,58.5629705 C21.5059967,59.2603811 23.6337624,58.8056869 24.7842673,57.539033 C25.8469911,56.3825704 28.7265376,53.9813988 30.8410898,53.9813988 C33.1332134,53.9813988 36.0850866,56.6694099 36.9353892,57.6138946 C37.7197788,58.4790043 38.9250696,59 40.1587967,59 C40.7350924,59 41.280711,58.8850619 41.7803527,58.6688817 L49.6692977,54.2905722 L49.7854377,54.2153215 C51.3280215,53.1296738 51.9153671,51.0154973 51.1550864,49.2930598 C51.1287367,49.229015 50.4998186,47.7415119 50.4998186,46.4087123 C50.4998186,42.2466607 53.8613887,38.8613169 57.9942893,38.8613169 L58.3033779,38.8613169 C59.7867713,38.8613169 60.9831759,37.5923285 61.3514549,35.6303652 C61.3777274,35.4934822 62,32.1766188 62,29.5196574 C62,26.8591162 61.3777278,23.5410854 61.3514553,23.4031131 M57.5034571,29.5195017 C57.5034571,31.238593 57.1637687,33.4477083 57.0081426,34.3701703 C50.808753,34.882139 46.0031212,40.0991777 46.0031212,46.4085566 C46.0031212,48.1895137 46.5641942,49.8953759 46.8622328,50.6800211 L40.1325246,54.4227859 C39.801568,54.0741584 38.8242299,53.0809593 37.4941445,52.0834023 C35.1581303,50.3400315 32.9184744,49.4494751 30.8410129,49.4494751 C28.7811694,49.4494751 26.5592088,50.317931 24.2341673,52.0392791 C22.9105728,53.0103 21.9464482,53.9768851 21.6089235,54.3343839 L15.1356814,50.6843789 C15.4512609,49.8600462 15.9969568,48.1762067 15.9969568,46.4085566 C15.9969568,40.0991777 11.1913248,34.882139 4.99417616,34.3701703 C4.83638647,33.4477082 4.49669812,31.2386708 4.49669812,29.5195017 C4.49669812,27.7969863 4.83638647,25.5868594 4.99417616,24.6643973 C11.1913248,24.1535181 15.9969568,18.9353899 15.9969568,12.626011 C15.9969568,10.8550147 15.435961,9.14362741 15.1379223,8.36014943 L22.0341521,4.54337913 C22.3343544,4.84578233 23.3182605,5.8156359 24.6637231,6.78004219 C26.955924,8.42746256 29.1386303,9.26167831 31.1589877,9.26167831 C33.1596408,9.26167831 35.3268927,8.44294847 37.6037164,6.82751157 C38.9601516,5.86754098 39.9418941,4.91091658 40.2267193,4.64057464 L46.8643192,8.35353493 C46.5641169,9.1325772 46.0030438,10.8384394 46.0030438,12.6260111 C46.0030438,18.93539 50.8086758,24.1535181 57.0080653,24.6643974 C57.1637687,25.5889605 57.5034571,27.8080366 57.5034571,29.5195017" id="形状"></path>
            <path d="M30.9999615,18 C24.9349929,18 20,22.9352947 20,29.0005395 C20,35.0667863 24.9350699,40 30.9999615,40 C37.0649301,40 42,35.0667863 42,29.0005395 C42,22.9352947 37.06493,18 30.9999615,18 M37.5152402,29.0005395 C37.5152402,32.5926263 34.5931177,35.5148048 30.9999614,35.5148048 C27.4068821,35.5148048 24.4869176,32.5926263 24.4869176,29.0005395 C24.4869176,25.4105336 27.4068821,22.4871991 30.9999614,22.4871991 C34.5931178,22.4871991 37.5152402,25.4105336 37.5152402,29.0005395" id="形状"></path>
        </g>
    </g>
</svg>