<?xml version="1.0" encoding="UTF-8"?>
<svg width="40px" height="29px" viewBox="0 0 40 29" version="1.1" xmlns="http://www.w3.org/2000/svg" xmlns:xlink="http://www.w3.org/1999/xlink">
    <title>1214353</title>
    <g id="页面-1" stroke="none" stroke-width="1" fill="none" fill-rule="evenodd">
        <g id="地区筛选备份" transform="translate(-978.000000, -409.000000)" fill="#1C51A3" fill-rule="nonzero">
            <g id="1214353" transform="translate(978.000000, 409.000000)">
                <path d="M39.0837181,0.839218343 C38.5492988,0.302113715 37.8218246,0 37.0629237,0 C36.3040228,0 35.5765486,0.302113715 35.0421293,0.839218343 L13.8380193,22.0042092 L4.92944687,13.0956206 C4.18206544,12.3759582 3.10629527,12.1084169 2.10736859,12.3937769 C1.1084419,12.6791368 0.338119428,13.4740452 0.0865741905,14.4790675 C-0.164971047,15.4840899 0.140476658,16.5465395 0.887858109,17.2662019 L11.8172249,28.1607817 C12.3516442,28.6978863 13.0791184,29 13.8380193,29 C14.5969202,29 15.3243944,28.6978863 15.8588136,28.1607817 L39.0837181,5.00979966 C39.6677879,4.47268671 40,3.71663259 40,2.924509 C40,2.13238541 39.6677879,1.37633129 39.0837181,0.839218343 Z" id="路径"></path>
            </g>
        </g>
    </g>
</svg>