<?xml version="1.0" encoding="UTF-8"?>
<svg width="30px" height="22px" viewBox="0 0 30 22" version="1.1" xmlns="http://www.w3.org/2000/svg" xmlns:xlink="http://www.w3.org/1999/xlink">
    <title>1214353备份</title>
    <g id="页面-1" stroke="none" stroke-width="1" fill="none" fill-rule="evenodd">
        <g id="1214353备份" fill="#1C51A3" fill-rule="nonzero">
            <path d="M29.3127885,0.636648398 C28.9119741,0.229189714 28.3663684,0 27.7971928,0 C27.2280171,0 26.6824114,0.229189714 26.281597,0.636648398 L10.3785145,16.6928484 L3.69708515,9.93460871 C3.13654908,9.38865793 2.32972145,9.18569556 1.58052644,9.40217555 C0.831331427,9.61865554 0.253589571,10.2216894 0.0649306429,10.9841202 C-0.123728285,11.746551 0.105357493,12.5525472 0.665893582,13.098498 L8.86291867,21.3633516 C9.26373313,21.7708103 9.80933878,22 10.3785145,22 C10.9476901,22 11.4932958,21.7708103 11.8941102,21.3633516 L29.3127885,3.80053767 C29.7508409,3.39307268 30,2.81951438 30,2.21859304 C30,1.61767169 29.7508409,1.04411339 29.3127885,0.636648398 Z" id="路径"></path>
        </g>
    </g>
</svg>